<?xml version="1.0" encoding="utf-8"?>
<!-- Generator: Adobe Illustrator 26.3.1, SVG Export Plug-In . SVG Version: 6.00 Build 0)  -->
<svg version="1.1" id="Layer_1" xmlns="http://www.w3.org/2000/svg" xmlns:xlink="http://www.w3.org/1999/xlink" x="0px" y="0px"
	 viewBox="0 0 1920 1080" style="enable-background:new 0 0 1920 1080;" xml:space="preserve">
<style type="text/css">
	.st0{fill:#97BF11;}
	.st1{fill:#FFFFFF;}
	.st2{fill:none;}
	.st3{fill:none;stroke:#DF9000;stroke-width:2;stroke-miterlimit:10;}
	.st4{font-family:'GurmukhiMN';}
	.st5{font-size:22px;}
</style>
<g>
	<path class="st0" d="M884.74,533.89c-4.13,45.1,28.2,88.27,75.76,87.25c46.19-0.55,83.29-41.35,77.76-87.25
		c-8.37-63.01-78.84-87.73-127-49.24C896.26,496.56,886.23,514.64,884.74,533.89L884.74,533.89z M848.77,533.89
		c-1.85-29.72,8.4-60.81,28.39-83.34c56.17-63.81,161.76-39.81,187.94,40.01c23.54,70.71-30.22,144.98-104.6,143.58
		C904.76,633.61,851.56,591.97,848.77,533.89L848.77,533.89z"/>
</g>
<ellipse class="st1" cx="987.19" cy="638.69" rx="0.93" ry="8.5"/>
<line class="st2" x1="1004.4" y1="624.87" x2="1004.4" y2="624.87"/>
<line class="st2" x1="978.59" y1="626.59" x2="978.59" y2="626.59"/>
<line class="st2" x1="998.77" y1="628.63" x2="998.77" y2="628.62"/>
<text transform="matrix(1 0 0 1 844.6484 659.6567)" class="st3 st4 st5">GOOD FOOD MOOD</text>
<path class="st0" d="M891.96,524.99c7.09,2.04,25.33,8.44,37.57,27.59c9.58,14.98,15.46,37.7,9.5,42.59
	c-6.14,5.04-26.08-7.86-34.74-26.53c-3.52-7.59-0.26-14.53-4.79-26.98c-2.33-6.39-5.26-11.23-7.4-14.38
	c-1.86-2.73-1.86-2.73-1.86-2.73"/>
<g>
	<path class="st1" d="M903.01,537.1c3.62,3.88,7.07,7.92,10.34,12.11c3.28,4.19,6.34,8.54,9.2,13.04c2.86,4.49,5.52,9.12,7.97,13.85
		c2.44,4.74,4.78,9.55,6.76,14.52l-2.8,1.31c-1.28-2.24-2.49-4.52-3.69-6.81c-1.18-2.3-2.38-4.59-3.52-6.91
		c-1.16-2.31-2.28-4.64-3.38-6.98c-0.56-1.17-1.09-2.35-1.61-3.54c-0.53-1.18-1.06-2.36-1.56-3.57l0.26-0.15
		c0.75,1.06,1.47,2.14,2.19,3.22c0.72,1.08,1.44,2.15,2.14,3.25c1.4,2.18,2.78,4.37,4.11,6.58c1.36,2.2,2.66,4.43,3.97,6.66
		c1.3,2.23,2.58,4.47,3.8,6.75l-2.8,1.31c-1.86-4.91-3.79-9.81-6.04-14.57c-2.24-4.76-4.69-9.43-7.35-13.98
		c-2.67-4.54-5.52-8.99-8.54-13.32c-3.03-4.33-6.26-8.52-9.67-12.57L903.01,537.1z"/>
</g>
<path class="st0" d="M1019.13,542.99c-0.82,7.81-4.26,28.07-23.26,44c-14.86,12.46-39.19,22.24-45.92,16.72
	c-6.93-5.69,3.45-28.77,22.65-40.84c7.81-4.91,16.28-2.55,29.34-9.3c6.71-3.46,11.54-7.32,14.64-10.07
	c2.69-2.39,2.69-2.39,2.69-2.39"/>
<g>
	<path class="st1" d="M949.87,603.59l13.31-10.52l13.4-10.4c4.48-3.45,8.8-7.11,13.49-10.28c4.67-3.18,9.42-6.27,14.46-8.95
		l0.18,0.24c-4.06,4.01-8.43,7.62-12.86,11.13c-4.42,3.52-9.21,6.56-13.84,9.8l-13.93,9.68l-14.02,9.56L949.87,603.59z"/>
</g>
<g>
	<path class="st1" d="M992.85,568.17c-9.96,12.47-21.64,23.55-34.64,32.84c-4.34,3.1-8.76,6.11-13.39,8.78l-1.7-2.58
		c4.08-3.17,8.29-6.16,12.53-9.12c4.25-2.96,8.56-5.82,12.99-8.51c0,0,0.18,0.24,0.18,0.24c-3.78,3.55-7.7,6.93-11.69,10.23
		c-3.98,3.29-8,6.54-12.15,9.62c0,0-1.7-2.58-1.7-2.58c13.93-7.48,26.78-16.87,38.27-27.73c3.84-3.62,7.53-7.42,11.05-11.38
		C992.62,567.98,992.85,568.17,992.85,568.17L992.85,568.17z"/>
</g>
<path class="st0" d="M935.17,520.6c2.34,0.83,8.37,3.44,12.42,11.26c3.16,6.11,5.11,15.39,3.14,17.38
	c-2.03,2.06-8.62-3.21-11.48-10.83c-1.16-3.1-0.09-5.93-1.58-11.01c-0.77-2.61-1.74-4.58-2.45-5.87c-0.61-1.12-0.61-1.12-0.61-1.12"
	/>
<g>
	<path class="st1" d="M939.9,527.13c5.35,6.39,9.31,13.87,12.24,21.65c0,0-2.9,1.1-2.9,1.1c-1.29-2.76-2.27-5.65-3.04-8.6
		c-1.01-3.99-0.81-4.07,1.49-0.66c1.68,2.54,3.19,5.2,4.39,8c0,0-2.9,1.1-2.9,1.1c-1.49-5.91-3.7-11.62-6.51-17.05
		c-0.93-1.82-1.95-3.6-3.02-5.36C939.66,527.3,939.9,527.13,939.9,527.13L939.9,527.13z"/>
</g>
<path class="st0" d="M978.2,529.58c-0.27,3.19-1.41,11.45-7.69,17.95c-4.91,5.08-12.95,9.08-15.18,6.82
	c-2.29-2.32,1.14-11.74,7.49-16.66c2.58-2,5.38-1.04,9.7-3.79c2.22-1.41,3.81-2.99,4.84-4.11c0.89-0.97,0.89-0.97,0.89-0.97"/>
<g>
	<path class="st1" d="M953.37,553.47c2.71-3.06,5.48-6.05,8.33-8.97c2.7-3.14,5.75-5.98,9.74-7.42c0,0,0.2,0.22,0.2,0.22
		c-1.82,3.83-4.94,6.59-8.33,8.97c-3.18,2.55-6.43,5.02-9.74,7.42C953.57,553.69,953.37,553.47,953.37,553.47L953.37,553.47z"/>
</g>
<g>
	<path class="st1" d="M969.59,539.91c-4.42,6.36-9.76,12.13-15.63,17.2c0,0-2-2.38-2-2.38c2.76-2.56,5.8-4.83,9.17-6.55
		c0,0,0.2,0.22,0.2,0.22c-0.49,0.84-1.04,1.62-1.61,2.38c-1.7,2.24-3.57,4.35-5.66,6.23c0,0-2-2.38-2-2.38
		c6.32-4.29,11.98-9.41,17.29-14.92C969.36,539.72,969.59,539.91,969.59,539.91L969.59,539.91z"/>
</g>
<path class="st0" d="M949.93,505.52c1.52,0.4,5.41,1.66,8.03,5.42c2.05,2.94,3.3,7.41,2.03,8.37c-1.31,0.99-5.57-1.55-7.42-5.21
	c-0.75-1.49-0.06-2.86-1.02-5.3c-0.5-1.26-1.12-2.21-1.58-2.83c-0.4-0.54-0.4-0.54-0.4-0.54"/>
<g>
	<path class="st1" d="M953.02,508.6c3.46,2.69,6.27,6.26,8.36,10.11c0,0-2.76,1.4-2.76,1.4c-0.85-1.32-1.41-2.84-1.76-4.38
		c-0.12-0.53-0.21-1.08-0.24-1.67l0.26-0.15c1.83,1.15,3.33,2.77,4.41,4.61c0,0-2.76,1.4-2.76,1.4c-1.2-4.02-3.25-7.68-5.71-11.11
		C952.8,508.81,953.02,508.6,953.02,508.6L953.02,508.6z"/>
</g>
<path class="st0" d="M977.75,509.84c-0.18,1.53-0.91,5.51-4.97,8.65c-3.18,2.45-8.38,4.37-9.81,3.28c-1.48-1.12,0.74-5.65,4.84-8.02
	c1.67-0.96,3.48-0.5,6.27-1.83c1.43-0.68,2.47-1.44,3.13-1.98c0.57-0.47,0.57-0.47,0.57-0.47"/>
<g>
	<path class="st1" d="M962.88,521.65c1.69-1.67,3.44-3.29,5.25-4.82c0.9-0.76,1.65-1.75,2.75-2.22c1.16-0.53,2.32-0.89,3.68-0.85
		c0,0,0.17,0.25,0.17,0.25c-0.9,2.46-2.92,3.91-5.25,4.82c-2.1,1.11-4.24,2.13-6.43,3.08C963.05,521.9,962.88,521.65,962.88,521.65
		L962.88,521.65z"/>
</g>
<g>
	<path class="st1" d="M972.22,514.87c-2.55,3.7-6.04,6.76-9.8,9.21c0,0-1.6-2.65-1.6-2.65c1.3-0.97,2.82-1.66,4.38-2.15
		c2.18-0.65,2.29-0.49,0.93,1.33c-1,1.3-2.17,2.48-3.53,3.37c0,0-1.6-2.65-1.6-2.65c4.02-1.57,7.65-3.9,11.01-6.65
		C972,514.67,972.22,514.87,972.22,514.87L972.22,514.87z"/>
</g>
</svg>
